<svg xmlns="http://www.w3.org/2000/svg" width="267" height="231" viewBox="0 0 267 231"><g fill="none" fill-rule="evenodd"><g fill="#FFF"><path d="M6.14 7.517l-.064 217.152 149.696-.182 53.937-12.83 26.75-23.492 25.206-41.89.985-47.59-13.168-37.438-33.256-38.521-42.56-12.092-89.458-3.666z"/><path d="M10.853 10.841v208.836h126.931c76.652 0 118.345-35.69 118.345-104.684 0-70.905-45.197-104.153-118.345-104.153H10.853v.001zM137.784.002c112.406 0 129.19 72.052 129.19 114.992 0 74.5-45.88 115.526-129.19 115.526H.007V.002h137.777z"/></g><path d="M93.759 86.396v20.938h6.424c4.457 0 8.57-1.286 8.57-10.628 0-9.143-4.576-10.31-8.57-10.31h-6.424zm133.043 20.937c-4.225-56.903-48.993-69.195-89.666-69.195H93.769v37.856h6.415c11.705 0 18.981 7.941 18.981 20.711 0 13.163-7.099 21.028-18.981 21.028h-6.415v75.75h43.368c66.133 0 89.149-30.708 89.961-75.75l-.296-10.4z" fill="#00B0F0"/><path fill="#FFF" d="M128.717 76.006h12.428v41.793h-12.428zm50.8 41.792h11.822V76.005h-11.646v24.367L163.11 76.005h-11.704v41.793h11.616V93.613z"/><path d="M24.674 22.668v186.234h113.145c68.326 0 105.491-31.827 105.491-93.354 0-63.231-40.288-92.881-105.491-92.881H24.674v.001zm113.145-9.666c100.197 0 115.157 64.254 115.157 102.547 0 66.437-40.896 103.023-115.157 103.023H15.006V13.002h122.813z" fill="#000"/><path fill="#000" d="M39.853 129.245h36.219v64.478H39.853zm40.617-32.48c0 12.434-10.075 22.514-22.511 22.514-12.427 0-22.512-10.08-22.512-22.514 0-12.427 10.085-22.511 22.512-22.511 12.437 0 22.511 10.084 22.511 22.511"/></g></svg>